#!OML:ASF I:\Actors\actors\Patient Classification 1\Patient 1\Session 1\Subject1.ASF
:FULLY-SPECIFIED
:DEGREES
1492
root 0.957279 17.4685 9.15702 10.2438 0.288378 -7.89875
lowerback -4.09 1.68777 7.12774
upperback -8.94403 2.3733 1.51097
thorax -6.89429 0.768386 -2.42925
lowerneck -7.65743 -3.34981 -1.92064
upperneck 8.8161 -4.86159 5.63292
head 4.07443 -2.16982 1.74988
rclavicle 3.20789e-014 -1.98785e-014
rhumerus -49.7482 26.1491 -108.531
rradius 71.54
rwrist -2.82772
rhand 24.6367 -17.8594
rfingers 7.12502
rthumb 48.8274 320.323
lclavicle 3.20789e-014 -1.98785e-014
lhumerus -48.1072 -8.90148 98.2732
lradius 46.176
lwrist 2.23042
lhand -32.4927 -21.334
lfingers 7.12502
lthumb -5.72445 8.56871
rfemur -3.43424 24.4654 24.177
rtibia 3.32056
rfoot -13.9714 -23.3491
rtoes 0.745819
lfemur 6.63456 -47.1276 -13.8389
ltibia -4.70938
lfoot -24.1622 52.9326
ltoes 9.24909
1493
root 0.961385 17.4648 9.16482 10.3185 0.321492 -7.91916
lowerback -4.26321 1.67596 7.21835
upperback -8.95133 2.34214 1.52485
thorax -6.80502 0.750385 -2.45929
lowerneck -7.75689 -3.32138 -1.9904
upperneck 8.82799 -4.8185 5.66557
head 4.09534 -2.14726 1.77219
rclavicle -2.34814e-014 -2.66371e-014
rhumerus -49.697 25.6771 -107.71
rradius 67.6121
rwrist -2.82416
rhand 20.0292 -17.8777
rfingers 7.12502
rthumb 44.5623 318.452
lclavicle -2.34814e-014 -2.66371e-014
lhumerus -47.8027 -7.67945 97.2196
lradius 43.8729
lwrist 0.882269
lhand -32.6615 -21.7995
lfingers 7.12502
lthumb -5.88744 8.09869
rfemur -3.43537 24.5738 24.1803
rtibia 3.23415
rfoot -13.9884 -23.4798
rtoes 0.793834
lfemur 6.56091 -47.1006 -13.7545
ltibia -4.74603
lfoot -24.1004 52.8875
ltoes 9.28164
1494
root 0.965076 17.463 9.17467 10.376 0.314016 -7.95274
lowerback -4.44128 1.6794 7.32618
upperback -8.95772 2.32991 1.5303
thorax -6.70975 0.740583 -2.50784
lowerneck -7.83449 -3.34714 -1.94843
upperneck 8.83013 -4.8401 5.49721
head 4.10444 -2.16412 1.71137
rclavicle -5.93869e-015 5.1684e-015
rhumerus -49.6416 24.4384 -106.7
rradius 63.9154
rwrist -2.37567
rhand 20.6507 -19.0099
rfingers 7.12502
rthumb 45.1408 317.546
lclavicle -5.93869e-015 5.1684e-015
lhumerus -47.5575 -6.35924 96.062
lradius 41.8271
lwrist -0.738874
lhand -32.4011 -20.883
lfingers 7.12502
lthumb -5.63598 9.02207
rfemur -3.39852 24.7185 24.2117
rtibia 3.13677
rfoot -14.0057 -23.6048
rtoes 0.830813
lfemur 6.62072 -47.2286 -13.7571
ltibia -4.82678
lfoot -24.2394 53.0072
ltoes 9.51703
1495
root 0.968865 17.4625 9.18564 10.39 0.303687 -7.9496
lowerback -4.60028 1.67147 7.38142
upperback -8.94677 2.30292 1.53425
thorax -6.60872 0.727432 -2.52927
lowerneck -7.88557 -3.39368 -1.75658
upperneck 8.79891 -4.88681 5.14574
head 4.0916 -2.19915 1.5695
rclavicle -5.2181e-015 -5.96354e-016
rhumerus -49.43 22.6901 -105.441
rradius 60.2994
rwrist -0.825104
rhand 18.8146 -20.2602
rfingers 7.12502
rthumb 43.4293 315.647
lclavicle -5.2181e-015 -5.96354e-016
lhumerus -47.1474 -4.80444 94.7674
lradius 39.8309
lwrist -2.39127
lhand -31.7006 -18.7121
lfingers 7.12502
lthumb -4.9596 11.2099
rfemur -3.28502 24.9011 24.2312
rtibia 3.02746
rfoot -14.0786 -23.767
rtoes 1.00419
lfemur 6.76092 -47.3915 -13.8765
ltibia -4.87042
lfoot -24.6187 53.0907
ltoes 9.99503
1496
root 0.973291 17.4625 9.19722 10.349 0.300619 -7.88947
lowerback -4.71331 1.65987 7.38618
upperback -8.92178 2.27397 1.52129
thorax -6.51897 0.715853 -2.54187
lowerneck -7.93667 -3.41968 -1.66716
upperneck 8.5077 -4.88605 4.77634
head 4.44046 -2.23015 1.60528
rclavicle 1.08089e-014 -2.50469e-014
rhumerus -49.0699 20.8251 -103.967
rradius 56.7075
rwrist 1.50781
rhand 17.5381 -20.3334
rfingers 7.12502
rthumb 42.2351 315.156
lclavicle 1.08089e-014 -2.50469e-014
lhumerus -46.5721 -2.94094 93.2871
lradius 37.572
lwrist -3.86609
lhand -31.1654 -17.4487
lfingers 7.12502
lthumb -4.44285 12.4847
rfemur -3.10172 25.0284 24.2092
rtibia 2.92026
rfoot -14.1504 -23.8952
rtoes 1.16128
lfemur 7.00182 -47.5922 -14.1623
ltibia -4.87313
lfoot -25.0438 53.1672
ltoes 10.5659
1497
root 0.978072 17.462 9.20903 10.2897 0.297907 -7.80819
lowerback -4.82192 1.65167 7.37677
upperback -8.88834 2.24935 1.50273
thorax -6.42215 0.707563 -2.55266
lowerneck -7.8745 -3.4224 -1.61288
upperneck 8.46573 -4.87821 4.61846
head 4.40418 -2.23373 1.54245
rclavicle 3.60297e-015 2.92213e-014
rhumerus -48.6652 18.9309 -102.362
rradius 53.2741
rwrist 3.69495
rhand 17.9544 -20.2517
rfingers 7.12502
rthumb 42.6249 315.371
lclavicle 3.60297e-015 2.92213e-014
lhumerus -45.9796 -0.822287 91.6348
lradius 35.1321
lwrist -5.54836
lhand -31.0185 -17.288
lfingers 7.12502
lthumb -4.30102 12.6483
rfemur -2.88251 25.2101 24.1767
rtibia 2.79098
rfoot -14.2107 -24.0741
rtoes 1.36388
lfemur 7.32293 -47.912 -14.5484
ltibia -4.88192
lfoot -25.4703 53.38
ltoes 11.0287
1498
root 0.981333 17.4596 9.21739 10.2878 0.257992 -7.7814
lowerback -4.94837 1.64928 7.38683
upperback -8.8585 2.232 1.51021
thorax -6.31925 0.702741 -2.54646
lowerneck -7.85523 -3.41858 -1.64974
upperneck 8.41344 -4.8633 4.58796
head 4.38089 -2.23008 1.5398
rclavicle 3.72721e-016 -1.98785e-015
rhumerus -48.2236 17.0798 -100.757
rradius 50.0169
rwrist 5.01418
rhand 18.452 -20.4947
rfingers 7.12502
rthumb 43.0904 315.291
lclavicle 3.72721e-016 -1.98785e-015
lhumerus -45.4354 1.3977 89.8981
lradius 32.7663
lwrist -7.40953
lhand -31.101 -17.1909
lfingers 7.12502
lthumb -4.38066 12.7438
rfemur -2.77572 25.4804 24.1732
rtibia 2.70068
rfoot -14.2659 -24.2912
rtoes 1.58021
lfemur 7.46384 -48.0391 -14.7035
ltibia -4.90793
lfoot -25.594 53.5105
ltoes 11.0644
1499
root 0.98437 17.4567 9.22435 10.3452 0.200586 -7.80435
lowerback -5.08426 1.65088 7.46187
upperback -8.8619 2.22057 1.52289
thorax -6.24621 0.695163 -2.57086
lowerneck -7.82661 -3.41142 -1.80872
upperneck 8.40151 -4.84887 4.72776
head 4.38135 -2.22203 1.61782
rclavicle -1.27222e-014 -4.6118e-014
rhumerus -47.8155 15.2938 -99.2087
rradius 46.9721
rwrist 5.59808
rhand 18.8055 -20.729
rfingers 7.12502
rthumb 43.4207 315.175
lclavicle -1.27222e-014 -4.6118e-014
lhumerus -45.0072 3.79496 88.0113
lradius 30.5366
lwrist -9.31484
lhand -31.2633 -16.9391
lfingers 7.12502
lthumb -4.53741 12.9923
rfemur -2.78759 25.6396 24.1749
rtibia 2.64676
rfoot -14.2742 -24.3936
rtoes 1.60949
lfemur 7.44929 -48.0269 -14.6672
ltibia -4.93555
lfoot -25.4999 53.5675
ltoes 10.8799
1500
root 0.988673 17.4551 9.23358 10.4123 0.136587 -7.81599
lowerback -5.23471 1.66065 7.55072
upperback -8.88368 2.21867 1.52206
thorax -6.18343 0.690238 -2.61681
lowerneck -7.73727 -3.44304 -1.93535
upperneck 8.35391 -4.88192 4.79365
head 4.3545 -2.24127 1.66214
rclavicle 1.77167e-014 -1.19271e-015
rhumerus -47.4991 13.5225 -97.6853
rradius 44.2274
rwrist 5.99728
rhand 19.3486 -21.1921
rfingers 7.12502
rthumb 43.9277 314.898
lclavicle 1.77167e-014 -1.19271e-015
lhumerus -44.749 6.31231 85.9806
lradius 28.5132
lwrist -11.3069
lhand -31.3779 -16.4841
lfingers 7.12502
lthumb -4.64806 13.4449
rfemur -2.78875 25.7428 24.1517
rtibia 2.56043
rfoot -14.2692 -24.4377
rtoes 1.60623
lfemur 7.4811 -48.1311 -14.7065
ltibia -4.94631
lfoot -25.5765 53.74
ltoes 10.8446
